<?xml version="1.0" encoding="UTF-8"?>
<!DOCTYPE svg PUBLIC "-//W3C//DTD SVG 1.1//EN" "http://www.w3.org/Graphics/SVG/1.1/DTD/svg11.dtd">
<svg xmlns="http://www.w3.org/2000/svg" version="1.1" width="192px" height="192px" style="shape-rendering:geometricPrecision; text-rendering:geometricPrecision; image-rendering:optimizeQuality; fill-rule:evenodd; clip-rule:evenodd" xmlns:xlink="http://www.w3.org/1999/xlink">
<g><path style="opacity:0.999" fill="#f5f6f6" d="M 92.5,-0.5 C 94.5,-0.5 96.5,-0.5 98.5,-0.5C 102.797,4.29788 107.297,8.96455 112,13.5C 118.749,9.69257 125.916,7.52591 133.5,7C 137.039,12.7809 139.705,18.9476 141.5,25.5C 148.508,25.3337 155.508,25.5004 162.5,26C 163.333,26.8333 164.167,27.6667 165,28.5C 165.5,35.4921 165.666,42.4921 165.5,49.5C 172.052,51.2945 178.219,53.9612 184,57.5C 183.474,65.0844 181.307,72.251 177.5,79C 182.035,83.7033 186.702,88.2033 191.5,92.5C 191.5,94.5 191.5,96.5 191.5,98.5C 186.702,102.797 182.035,107.297 177.5,112C 181.307,118.749 183.474,125.916 184,133.5C 178.219,137.039 172.052,139.705 165.5,141.5C 165.666,148.508 165.5,155.508 165,162.5C 164.167,163.333 163.333,164.167 162.5,165C 155.508,165.5 148.508,165.666 141.5,165.5C 139.705,172.052 137.039,178.219 133.5,184C 125.916,183.474 118.749,181.307 112,177.5C 107.297,182.035 102.797,186.702 98.5,191.5C 96.5,191.5 94.5,191.5 92.5,191.5C 88.2033,186.702 83.7033,182.035 79,177.5C 72.251,181.307 65.0844,183.474 57.5,184C 53.9612,178.219 51.2945,172.052 49.5,165.5C 42.4921,165.666 35.4921,165.5 28.5,165C 27.6667,164.167 26.8333,163.333 26,162.5C 25.5004,155.508 25.3337,148.508 25.5,141.5C 18.9476,139.705 12.7809,137.039 7,133.5C 7.52591,125.916 9.69257,118.749 13.5,112C 8.96455,107.297 4.29788,102.797 -0.5,98.5C -0.5,96.5 -0.5,94.5 -0.5,92.5C 4.29788,88.2033 8.96455,83.7033 13.5,79C 9.69257,72.251 7.52591,65.0844 7,57.5C 11.1811,54.827 15.6811,52.827 20.5,51.5C 22.2624,51.6427 23.9291,51.3094 25.5,50.5C 26.4973,43.1968 26.8306,35.8635 26.5,28.5C 26.9528,27.5416 27.6195,26.7083 28.5,26C 35.4921,25.5004 42.4921,25.3337 49.5,25.5C 51.2945,18.9476 53.9612,12.7809 57.5,7C 65.0844,7.52591 72.251,9.69257 79,13.5C 83.7033,8.96455 88.2033,4.29788 92.5,-0.5 Z M 94.5,9.5 C 97.4779,11.3463 100.145,13.6796 102.5,16.5C 97.8333,20.5 93.1667,20.5 88.5,16.5C 90.6616,14.1402 92.6616,11.8069 94.5,9.5 Z M 62.5,16.5 C 65.9083,17.3668 69.2416,18.5335 72.5,20C 69.1428,25.1613 64.4761,26.828 58.5,25C 59.9325,22.1971 61.2658,19.3637 62.5,16.5 Z M 125.5,16.5 C 126.822,16.33 127.989,16.6634 129,17.5C 129.977,20.1024 131.144,22.6024 132.5,25C 126.524,26.828 121.857,25.1613 118.5,20C 121.174,19.3299 123.507,18.1632 125.5,16.5 Z M 80.5,23.5 C 82.9828,23.73 83.4828,24.3966 82,25.5C 80.9701,25.1639 80.4701,24.4972 80.5,23.5 Z M 108.5,23.5 C 109.376,23.3691 110.043,23.7025 110.5,24.5C 108.192,25.8734 107.525,25.5401 108.5,23.5 Z M 43.5,39.5 C 40.6085,40.4025 37.6085,40.7359 34.5,40.5C 34.5,38.5 34.5,36.5 34.5,34.5C 38.1817,34.3347 41.8484,34.5014 45.5,35C 44.4178,36.3297 43.7512,37.8297 43.5,39.5 Z M 156.5,40.5 C 153.391,40.7359 150.391,40.4025 147.5,39.5C 147.249,37.8297 146.582,36.3297 145.5,35C 149.152,34.5014 152.818,34.3347 156.5,34.5C 156.5,36.5 156.5,38.5 156.5,40.5 Z M 35.5,54.5 C 35.8333,54.5 36.1667,54.5 36.5,54.5C 36.5386,55.7562 36.0386,56.7562 35,57.5C 34.2599,56.2506 34.4265,55.2506 35.5,54.5 Z M 154.5,54.5 C 156.225,54.8425 156.725,55.8425 156,57.5C 154.961,56.7562 154.461,55.7562 154.5,54.5 Z M 24.5,58.5 C 26.8228,64.2717 25.3228,68.9384 20,72.5C 18.9715,69.6096 17.8048,66.7763 16.5,64C 16.6448,63.228 16.9781,62.5613 17.5,62C 20.0691,61.1016 22.4024,59.935 24.5,58.5 Z M 165.5,58.5 C 168.364,59.7342 171.197,61.0675 174,62.5C 173.639,65.9243 172.639,69.2577 171,72.5C 166.002,69.1512 164.169,64.4846 165.5,58.5 Z M 23.5,80.5 C 25.2252,80.8425 25.7252,81.8425 25,83.5C 23.9614,82.7562 23.4614,81.7562 23.5,80.5 Z M 165.5,80.5 C 167.973,80.9473 168.14,81.9473 166,83.5C 165.517,82.552 165.351,81.552 165.5,80.5 Z M 15.5,88.5 C 20.3485,92.6507 20.6819,97.3173 16.5,102.5C 13.9387,100.36 11.6054,98.027 9.5,95.5C 11.7525,93.2903 13.7525,90.957 15.5,88.5 Z M 173.5,88.5 C 176.77,90.1007 179.437,92.4341 181.5,95.5C 179.395,98.027 177.061,100.36 174.5,102.5C 170.899,98.0859 170.566,93.4192 173.5,88.5 Z M 24.5,107.5 C 25.7759,108.386 25.7759,109.386 24.5,110.5C 23.4376,109.575 23.4376,108.575 24.5,107.5 Z M 165.5,107.5 C 167.332,108.14 167.665,109.14 166.5,110.5C 165.614,109.675 165.281,108.675 165.5,107.5 Z M 19.5,118.5 C 25.1386,121.557 26.9719,126.224 25,132.5C 22.3333,131.167 19.6667,129.833 17,128.5C 17.4919,125.15 18.3253,121.817 19.5,118.5 Z M 170.5,118.5 C 171.922,121.182 173.255,124.015 174.5,127C 174.355,127.772 174.022,128.439 173.5,129C 170.898,129.977 168.398,131.144 166,132.5C 165.333,129.5 165.333,126.5 166,123.5C 167.707,121.963 169.207,120.296 170.5,118.5 Z M 36.5,136.5 C 34.7748,136.157 34.2748,135.157 35,133.5C 36.0386,134.244 36.5386,135.244 36.5,136.5 Z M 154.5,136.5 C 154.73,134.017 155.397,133.517 156.5,135C 156.164,136.03 155.497,136.53 154.5,136.5 Z M 34.5,145.5 C 36.9535,147.06 39.6202,148.06 42.5,148.5C 42.7976,151.265 43.7976,153.765 45.5,156C 41.8484,156.499 38.1817,156.665 34.5,156.5C 34.5,152.833 34.5,149.167 34.5,145.5 Z M 58.5,166.5 C 64.2717,164.177 68.9384,165.677 72.5,171C 69.6096,172.029 66.7763,173.195 64,174.5C 63.228,174.355 62.5613,174.022 62,173.5C 61.1016,170.931 59.935,168.598 58.5,166.5 Z M 80.5,165.5 C 83.7973,165.329 84.1306,165.995 81.5,167.5C 80.7025,167.043 80.3691,166.376 80.5,165.5 Z M 107.5,166.5 C 108.386,165.224 109.386,165.224 110.5,166.5C 109.575,167.562 108.575,167.562 107.5,166.5 Z M 123.5,165.5 C 126.518,165.335 129.518,165.502 132.5,166C 131.167,168.667 129.833,171.333 128.5,174C 125.076,173.639 121.742,172.639 118.5,171C 120.373,169.296 122.04,167.463 123.5,165.5 Z M 93.5,171.5 C 96.8502,171.506 99.8502,172.506 102.5,174.5C 100.36,177.061 98.027,179.395 95.5,181.5C 92.973,179.395 90.6397,177.061 88.5,174.5C 90.1446,173.304 91.8113,172.304 93.5,171.5 Z"/></g>
<g><path style="opacity:0.031" fill="#bebebe" d="M 26.5,28.5 C 26.8306,35.8635 26.4973,43.1968 25.5,50.5C 23.9291,51.3094 22.2624,51.6427 20.5,51.5C 21.7804,50.0687 23.4471,49.4021 25.5,49.5C 25.1755,42.3134 25.5088,35.3134 26.5,28.5 Z"/></g>
<g><path style="opacity:0.994" fill="#060707" d="M 65.5,33.5 C 65.5,36.1667 65.5,38.8333 65.5,41.5C 69.8333,41.5 74.1667,41.5 78.5,41.5C 89.8333,41.5 101.167,41.5 112.5,41.5C 116.833,41.5 121.167,41.5 125.5,41.5C 125.5,38.8333 125.5,36.1667 125.5,33.5C 129.5,33.5 133.5,33.5 137.5,33.5C 138.371,36.2716 138.371,38.9382 137.5,41.5C 141.329,42.069 144.663,41.4023 147.5,39.5C 150.391,40.4025 153.391,40.7359 156.5,40.5C 156.5,40.8333 156.5,41.1667 156.5,41.5C 156.984,45.8274 156.318,49.8274 154.5,53.5C 150.167,53.5 145.833,53.5 141.5,53.5C 140.167,53.5 138.833,53.5 137.5,53.5C 137.5,56.5 137.5,59.5 137.5,62.5C 136.167,62.5 134.833,62.5 133.5,62.5C 130.833,62.5 128.167,62.5 125.5,62.5C 126.055,58.9878 125.388,55.9878 123.5,53.5C 117.167,53.5 110.833,53.5 104.5,53.5C 98.1667,53.5 91.8333,53.5 85.5,53.5C 78.8333,53.5 72.1667,53.5 65.5,53.5C 65.5,56.5 65.5,59.5 65.5,62.5C 62.8333,62.5 60.1667,62.5 57.5,62.5C 55.8333,62.5 54.1667,62.5 52.5,62.5C 52.5,61.1667 52.5,59.8333 52.5,58.5C 52.5,56.8333 52.5,55.1667 52.5,53.5C 51.5,53.5 50.5,53.5 49.5,53.5C 45.1667,53.5 40.8333,53.5 36.5,53.5C 34.6823,49.8274 34.0157,45.8274 34.5,41.5C 34.5,41.1667 34.5,40.8333 34.5,40.5C 37.6085,40.7359 40.6085,40.4025 43.5,39.5C 45.9878,41.3878 48.9878,42.0545 52.5,41.5C 52.5,38.8333 52.5,36.1667 52.5,33.5C 56.8333,33.5 61.1667,33.5 65.5,33.5 Z"/></g>
<g><path style="opacity:0.804" fill="#49b1ab" d="M 125.5,33.5 C 125.5,36.1667 125.5,38.8333 125.5,41.5C 121.167,41.5 116.833,41.5 112.5,41.5C 101.384,37.9132 90.051,37.5799 78.5,40.5C 75.1667,40.5 71.8333,40.5 68.5,40.5C 72.9559,38.1085 77.6226,35.9418 82.5,34C 91.1667,33.3333 99.8333,33.3333 108.5,34C 113.376,36.4585 118.376,38.6252 123.5,40.5C 124.168,38.0312 124.835,35.6979 125.5,33.5 Z"/></g>
<g><path style="opacity:1" fill="#dfe5e5" d="M 112.5,41.5 C 101.167,41.5 89.8333,41.5 78.5,41.5C 78.5,41.1667 78.5,40.8333 78.5,40.5C 90.051,37.5799 101.384,37.9132 112.5,41.5 Z"/></g>
<g><path style="opacity:0.859" fill="#4a7c79" d="M 65.5,33.5 C 65.9174,36.1589 66.9174,38.4922 68.5,40.5C 71.8333,40.5 75.1667,40.5 78.5,40.5C 78.5,40.8333 78.5,41.1667 78.5,41.5C 74.1667,41.5 69.8333,41.5 65.5,41.5C 65.5,38.8333 65.5,36.1667 65.5,33.5 Z"/></g>
<g><path style="opacity:1" fill="#6f6f6f" d="M 34.5,41.5 C 34.0157,45.8274 34.6823,49.8274 36.5,53.5C 36.5,53.8333 36.5,54.1667 36.5,54.5C 36.1667,54.5 35.8333,54.5 35.5,54.5C 34.3101,52.4467 33.6434,50.1134 33.5,47.5C 33.5046,45.3035 33.838,43.3035 34.5,41.5 Z"/></g>
<g><path style="opacity:1" fill="#6e6e6e" d="M 156.5,41.5 C 157.483,45.2984 157.817,49.2984 157.5,53.5C 156.5,53.5 155.5,53.5 154.5,53.5C 156.318,49.8274 156.984,45.8274 156.5,41.5 Z"/></g>
<g><path style="opacity:0.804" fill="#46b4ae" d="M 49.5,53.5 C 50.5,53.5 51.5,53.5 52.5,53.5C 52.5,55.1667 52.5,56.8333 52.5,58.5C 42.3101,69.3951 37.6435,82.3951 38.5,97.5C 36.8333,97.5 35.1667,97.5 33.5,97.5C 33.3341,92.4889 33.5007,87.4889 34,82.5C 37.1388,74.7508 40.4721,67.0841 44,59.5C 46.0396,57.6298 47.8729,55.6298 49.5,53.5 Z"/></g>
<g><path style="opacity:1" fill="#eef2f1" d="M 85.5,53.5 C 77.3923,56.0534 70.3923,60.3867 64.5,66.5C 61.5,66.5 58.5,66.5 55.5,66.5C 56.1667,65.1667 56.8333,63.8333 57.5,62.5C 60.1667,62.5 62.8333,62.5 65.5,62.5C 65.5,59.5 65.5,56.5 65.5,53.5C 72.1667,53.5 78.8333,53.5 85.5,53.5 Z"/></g>
<g><path style="opacity:0.804" fill="#43b3ad" d="M 85.5,53.5 C 91.8333,53.5 98.1667,53.5 104.5,53.5C 116.215,56.6126 125.382,63.2792 132,73.5C 133.741,76.3093 134.908,79.3093 135.5,82.5C 134.167,82.5 132.833,82.5 131.5,82.5C 126.186,68.0291 115.853,59.5291 100.5,57C 88.3376,55.4288 78.0043,58.9288 69.5,67.5C 69.1667,67.5 68.8333,67.5 68.5,67.5C 67.4324,66.5655 66.099,66.2322 64.5,66.5C 70.3923,60.3867 77.3923,56.0534 85.5,53.5 Z"/></g>
<g><path style="opacity:0.804" fill="#45b1ac" d="M 141.5,53.5 C 143.127,55.6298 144.96,57.6298 147,59.5C 150.661,66.9887 153.828,74.6554 156.5,82.5C 154.833,82.5 153.167,82.5 151.5,82.5C 149.174,73.5147 145.008,65.5147 139,58.5C 138.333,60.5 138.333,62.5 139,64.5C 143.178,69.8555 146.011,75.8555 147.5,82.5C 146.167,82.5 144.833,82.5 143.5,82.5C 141.491,75.1613 138.157,68.4946 133.5,62.5C 134.833,62.5 136.167,62.5 137.5,62.5C 137.5,59.5 137.5,56.5 137.5,53.5C 138.833,53.5 140.167,53.5 141.5,53.5 Z"/></g>
<g><path style="opacity:1" fill="#8a9998" d="M 123.5,53.5 C 125.388,55.9878 126.055,58.9878 125.5,62.5C 124.755,59.6104 124.088,56.6104 123.5,53.5 Z"/></g>
<g><path style="opacity:1" fill="#f1f9f9" d="M 131.5,82.5 C 130.167,82.5 128.833,82.5 127.5,82.5C 122.756,70.1128 113.756,62.9461 100.5,61C 88.3831,59.399 78.0497,62.899 69.5,71.5C 69.5,70.1667 69.5,68.8333 69.5,67.5C 78.0043,58.9288 88.3376,55.4288 100.5,57C 115.853,59.5291 126.186,68.0291 131.5,82.5 Z"/></g>
<g><path style="opacity:1" fill="#f0f9f8" d="M 52.5,58.5 C 52.5,59.8333 52.5,61.1667 52.5,62.5C 45.1267,72.9597 41.7934,84.6263 42.5,97.5C 41.1667,97.5 39.8333,97.5 38.5,97.5C 37.6435,82.3951 42.3101,69.3951 52.5,58.5 Z"/></g>
<g><path style="opacity:1" fill="#f3faf9" d="M 151.5,82.5 C 150.167,82.5 148.833,82.5 147.5,82.5C 146.011,75.8555 143.178,69.8555 139,64.5C 138.333,62.5 138.333,60.5 139,58.5C 145.008,65.5147 149.174,73.5147 151.5,82.5 Z"/></g>
<g><path style="opacity:0.804" fill="#34aea8" d="M 127.5,82.5 C 117.833,82.5 108.167,82.5 98.5,82.5C 98.5,77.5 98.5,72.5 98.5,67.5C 94.03,66.5139 89.3633,66.1805 84.5,66.5C 84.5,87.1667 84.5,107.833 84.5,128.5C 74.6501,125.317 67.6501,118.983 63.5,109.5C 65.5,109.5 67.5,109.5 69.5,109.5C 69.5,96.8333 69.5,84.1667 69.5,71.5C 78.0497,62.899 88.3831,59.399 100.5,61C 113.756,62.9461 122.756,70.1128 127.5,82.5 Z"/></g>
<g><path style="opacity:0.804" fill="#41b2ac" d="M 52.5,62.5 C 54.1667,62.5 55.8333,62.5 57.5,62.5C 56.8333,63.8333 56.1667,65.1667 55.5,66.5C 48.3357,75.455 45.0024,85.7883 45.5,97.5C 44.5,97.5 43.5,97.5 42.5,97.5C 41.7934,84.6263 45.1267,72.9597 52.5,62.5 Z"/></g>
<g><path style="opacity:1" fill="#f7fbfb" d="M 104.5,53.5 C 110.833,53.5 117.167,53.5 123.5,53.5C 124.088,56.6104 124.755,59.6104 125.5,62.5C 128.167,62.5 130.833,62.5 133.5,62.5C 138.157,68.4946 141.491,75.1613 143.5,82.5C 140.833,82.5 138.167,82.5 135.5,82.5C 134.908,79.3093 133.741,76.3093 132,73.5C 125.382,63.2792 116.215,56.6126 104.5,53.5 Z"/></g>
<g><path style="opacity:1" fill="#f6fbfb" d="M 55.5,66.5 C 55.5,71.1667 55.5,75.8333 55.5,80.5C 55.5,81.1667 55.5,81.8333 55.5,82.5C 54.7321,83.2625 54.2321,84.2625 54,85.5C 53.5012,89.4862 53.3345,93.4862 53.5,97.5C 50.8333,97.5 48.1667,97.5 45.5,97.5C 45.0024,85.7883 48.3357,75.455 55.5,66.5 Z"/></g>
<g><path style="opacity:1" fill="#555959" d="M 55.5,66.5 C 58.5,66.5 61.5,66.5 64.5,66.5C 66.099,66.2322 67.4324,66.5655 68.5,67.5C 64.5,67.5 60.5,67.5 56.5,67.5C 56.8182,72.0323 56.4849,76.3656 55.5,80.5C 55.5,75.8333 55.5,71.1667 55.5,66.5 Z"/></g>
<g><path style="opacity:1" fill="#040807" d="M 68.5,67.5 C 68.8333,67.5 69.1667,67.5 69.5,67.5C 69.5,68.8333 69.5,70.1667 69.5,71.5C 69.5,84.1667 69.5,96.8333 69.5,109.5C 67.5,109.5 65.5,109.5 63.5,109.5C 62.1667,109.5 60.8333,109.5 59.5,109.5C 58.1667,109.5 56.8333,109.5 55.5,109.5C 53.1667,109.5 50.8333,109.5 48.5,109.5C 47.1667,109.5 45.8333,109.5 44.5,109.5C 43.1667,109.5 41.8333,109.5 40.5,109.5C 38.5,109.5 36.5,109.5 34.5,109.5C 34.5,105.833 34.5,102.167 34.5,98.5C 41.0221,98.8235 47.3554,98.4902 53.5,97.5C 55.4417,92.9443 56.1083,87.9443 55.5,82.5C 55.5,81.8333 55.5,81.1667 55.5,80.5C 56.4849,76.3656 56.8182,72.0323 56.5,67.5C 60.5,67.5 64.5,67.5 68.5,67.5 Z"/></g>
<g><path style="opacity:0.867" fill="#1d6663" d="M 98.5,67.5 C 94.1667,67.5 89.8333,67.5 85.5,67.5C 85.5,87.8333 85.5,108.167 85.5,128.5C 85.1667,128.5 84.8333,128.5 84.5,128.5C 84.5,107.833 84.5,87.1667 84.5,66.5C 89.3633,66.1805 94.03,66.5139 98.5,67.5 Z"/></g>
<g><path style="opacity:1" fill="#000101" d="M 98.5,67.5 C 98.5,72.5 98.5,77.5 98.5,82.5C 117.659,83.497 136.993,83.8303 156.5,83.5C 156.5,87.1667 156.5,90.8333 156.5,94.5C 155.167,94.5 153.833,94.5 152.5,94.5C 151.5,94.5 150.5,94.5 149.5,94.5C 148.167,94.5 146.833,94.5 145.5,94.5C 142.833,94.5 140.167,94.5 137.5,94.5C 136.5,94.5 135.5,94.5 134.5,94.5C 133.167,94.5 131.833,94.5 130.5,94.5C 119.833,94.5 109.167,94.5 98.5,94.5C 98.5,106.5 98.5,118.5 98.5,130.5C 98.5,131.5 98.5,132.5 98.5,133.5C 98.5,134.833 98.5,136.167 98.5,137.5C 98.5,139.833 98.5,142.167 98.5,144.5C 117.659,145.497 136.993,145.83 156.5,145.5C 156.5,149.167 156.5,152.833 156.5,156.5C 140.5,156.5 124.5,156.5 108.5,156.5C 100.833,156.5 93.1667,156.5 85.5,156.5C 85.5,148.5 85.5,140.5 85.5,132.5C 85.5,131.167 85.5,129.833 85.5,128.5C 85.5,108.167 85.5,87.8333 85.5,67.5C 89.8333,67.5 94.1667,67.5 98.5,67.5 Z"/></g>
<g><path style="opacity:1" fill="#445a58" d="M 98.5,82.5 C 108.167,82.5 117.833,82.5 127.5,82.5C 128.833,82.5 130.167,82.5 131.5,82.5C 132.833,82.5 134.167,82.5 135.5,82.5C 138.167,82.5 140.833,82.5 143.5,82.5C 144.833,82.5 146.167,82.5 147.5,82.5C 148.833,82.5 150.167,82.5 151.5,82.5C 153.167,82.5 154.833,82.5 156.5,82.5C 157.483,86.2984 157.817,90.2984 157.5,94.5C 157.167,94.5 156.833,94.5 156.5,94.5C 156.5,90.8333 156.5,87.1667 156.5,83.5C 136.993,83.8303 117.659,83.497 98.5,82.5 Z"/></g>
<g><path style="opacity:0.804" fill="#3fb2ac" d="M 55.5,82.5 C 56.1083,87.9443 55.4417,92.9443 53.5,97.5C 53.3345,93.4862 53.5012,89.4862 54,85.5C 54.2321,84.2625 54.7321,83.2625 55.5,82.5 Z"/></g>
<g><path style="opacity:0.804" fill="#33aca6" d="M 130.5,94.5 C 129.364,114.97 118.697,126.97 98.5,130.5C 98.5,118.5 98.5,106.5 98.5,94.5C 109.167,94.5 119.833,94.5 130.5,94.5 Z"/></g>
<g><path style="opacity:1" fill="#f0f8f8" d="M 130.5,94.5 C 131.833,94.5 133.167,94.5 134.5,94.5C 133.867,112.608 125.2,125.108 108.5,132C 105.243,133.043 101.91,133.543 98.5,133.5C 98.5,132.5 98.5,131.5 98.5,130.5C 118.697,126.97 129.364,114.97 130.5,94.5 Z"/></g>
<g><path style="opacity:0.804" fill="#43b3ad" d="M 134.5,94.5 C 135.5,94.5 136.5,94.5 137.5,94.5C 137.516,112.629 129.516,125.795 113.5,134C 108.671,135.958 103.671,137.124 98.5,137.5C 98.5,136.167 98.5,134.833 98.5,133.5C 101.91,133.543 105.243,133.043 108.5,132C 125.2,125.108 133.867,112.608 134.5,94.5 Z"/></g>
<g><path style="opacity:1" fill="#f6fbfa" d="M 137.5,94.5 C 140.167,94.5 142.833,94.5 145.5,94.5C 143.908,119.72 131.242,136.387 107.5,144.5C 104.5,144.5 101.5,144.5 98.5,144.5C 98.5,142.167 98.5,139.833 98.5,137.5C 103.671,137.124 108.671,135.958 113.5,134C 129.516,125.795 137.516,112.629 137.5,94.5 Z"/></g>
<g><path style="opacity:0.804" fill="#43b2ad" d="M 145.5,94.5 C 146.833,94.5 148.167,94.5 149.5,94.5C 148.292,116.933 137.958,133.6 118.5,144.5C 114.833,144.5 111.167,144.5 107.5,144.5C 131.242,136.387 143.908,119.72 145.5,94.5 Z"/></g>
<g><path style="opacity:1" fill="#f2f9f9" d="M 149.5,94.5 C 150.5,94.5 151.5,94.5 152.5,94.5C 152.357,116.13 143.357,132.796 125.5,144.5C 123.167,144.5 120.833,144.5 118.5,144.5C 137.958,133.6 148.292,116.933 149.5,94.5 Z"/></g>
<g><path style="opacity:0.804" fill="#48b4ae" d="M 152.5,94.5 C 153.833,94.5 155.167,94.5 156.5,94.5C 156.833,94.5 157.167,94.5 157.5,94.5C 157.666,99.1785 157.499,103.845 157,108.5C 153.472,116.084 150.139,123.751 147,131.5C 142.63,135.702 138.463,140.036 134.5,144.5C 131.5,144.5 128.5,144.5 125.5,144.5C 143.357,132.796 152.357,116.13 152.5,94.5 Z"/></g>
<g><path style="opacity:1" fill="#3b4040" d="M 33.5,97.5 C 35.1667,97.5 36.8333,97.5 38.5,97.5C 39.8333,97.5 41.1667,97.5 42.5,97.5C 43.5,97.5 44.5,97.5 45.5,97.5C 48.1667,97.5 50.8333,97.5 53.5,97.5C 47.3554,98.4902 41.0221,98.8235 34.5,98.5C 34.5,102.167 34.5,105.833 34.5,109.5C 33.5166,105.702 33.1832,101.702 33.5,97.5 Z"/></g>
<g><path style="opacity:0.804" fill="#43b3ad" d="M 34.5,109.5 C 36.5,109.5 38.5,109.5 40.5,109.5C 41.5688,116.297 44.2355,122.297 48.5,127.5C 48.5,130.167 48.5,132.833 48.5,135.5C 46.8712,134.375 45.3712,133.041 44,131.5C 40.9236,124.096 37.7569,116.763 34.5,109.5 Z"/></g>
<g><path style="opacity:1" fill="#f2f9f9" d="M 40.5,109.5 C 41.8333,109.5 43.1667,109.5 44.5,109.5C 45.1596,113.313 46.3262,116.979 48,120.5C 48.4966,122.81 48.6633,125.143 48.5,127.5C 44.2355,122.297 41.5688,116.297 40.5,109.5 Z"/></g>
<g><path style="opacity:0.804" fill="#5c9b97" d="M 44.5,109.5 C 45.8333,109.5 47.1667,109.5 48.5,109.5C 48.366,111.292 48.6993,112.958 49.5,114.5C 49.5,128.5 49.5,142.5 49.5,156.5C 48.5088,149.687 48.1755,142.687 48.5,135.5C 48.5,132.833 48.5,130.167 48.5,127.5C 48.6633,125.143 48.4966,122.81 48,120.5C 46.3262,116.979 45.1596,113.313 44.5,109.5 Z"/></g>
<g><path style="opacity:1" fill="#f0f4f3" d="M 48.5,109.5 C 50.8333,109.5 53.1667,109.5 55.5,109.5C 56.1667,111.167 56.8333,112.833 57.5,114.5C 54.8333,114.5 52.1667,114.5 49.5,114.5C 48.6993,112.958 48.366,111.292 48.5,109.5 Z"/></g>
<g><path style="opacity:0.804" fill="#3aaaa4" d="M 55.5,109.5 C 56.8333,109.5 58.1667,109.5 59.5,109.5C 59.8925,111.284 60.5592,112.95 61.5,114.5C 60.1667,114.5 58.8333,114.5 57.5,114.5C 56.8333,112.833 56.1667,111.167 55.5,109.5 Z"/></g>
<g><path style="opacity:0.999" fill="#eef6f6" d="M 59.5,109.5 C 60.8333,109.5 62.1667,109.5 63.5,109.5C 67.6501,118.983 74.6501,125.317 84.5,128.5C 84.8333,128.5 85.1667,128.5 85.5,128.5C 85.5,129.833 85.5,131.167 85.5,132.5C 75.647,130.314 67.9803,124.981 62.5,116.5C 62.6716,115.508 62.3382,114.842 61.5,114.5C 60.5592,112.95 59.8925,111.284 59.5,109.5 Z"/></g>
<g><path style="opacity:0.999" fill="#060807" d="M 49.5,114.5 C 52.1667,114.5 54.8333,114.5 57.5,114.5C 58.8333,114.5 60.1667,114.5 61.5,114.5C 62.3382,114.842 62.6716,115.508 62.5,116.5C 62.5,118.5 62.5,120.5 62.5,122.5C 62.5,126.167 62.5,129.833 62.5,133.5C 62.5,135.167 62.5,136.833 62.5,138.5C 62.5,139.833 62.5,141.167 62.5,142.5C 62.5,144.5 62.5,146.5 62.5,148.5C 62.5,151.167 62.5,153.833 62.5,156.5C 58.1667,156.5 53.8333,156.5 49.5,156.5C 49.5,142.5 49.5,128.5 49.5,114.5 Z"/></g>
<g><path style="opacity:1" fill="#f8fcfc" d="M 62.5,122.5 C 68.2256,128.878 75.2256,133.545 83.5,136.5C 84.4742,138.743 84.8076,141.076 84.5,143.5C 80.9513,143.561 77.6179,142.727 74.5,141C 70.3037,138.739 66.3037,136.239 62.5,133.5C 62.5,129.833 62.5,126.167 62.5,122.5 Z"/></g>
<g><path style="opacity:0.804" fill="#51b2ad" d="M 62.5,116.5 C 67.9803,124.981 75.647,130.314 85.5,132.5C 85.5,140.5 85.5,148.5 85.5,156.5C 93.1667,156.5 100.833,156.5 108.5,156.5C 100.01,157.657 91.3433,157.824 82.5,157C 75.8451,154.062 69.1785,151.229 62.5,148.5C 62.5,146.5 62.5,144.5 62.5,142.5C 69.1423,147.153 76.4756,150.153 84.5,151.5C 84.5,150.167 84.5,148.833 84.5,147.5C 76.4496,146.138 69.1162,143.138 62.5,138.5C 62.5,136.833 62.5,135.167 62.5,133.5C 66.3037,136.239 70.3037,138.739 74.5,141C 77.6179,142.727 80.9513,143.561 84.5,143.5C 84.8076,141.076 84.4742,138.743 83.5,136.5C 75.2256,133.545 68.2256,128.878 62.5,122.5C 62.5,120.5 62.5,118.5 62.5,116.5 Z"/></g>
<g><path style="opacity:1" fill="#f2faf9" d="M 62.5,138.5 C 69.1162,143.138 76.4496,146.138 84.5,147.5C 84.5,148.833 84.5,150.167 84.5,151.5C 76.4756,150.153 69.1423,147.153 62.5,142.5C 62.5,141.167 62.5,139.833 62.5,138.5 Z"/></g>
<g><path style="opacity:1" fill="#333838" d="M 98.5,144.5 C 101.5,144.5 104.5,144.5 107.5,144.5C 111.167,144.5 114.833,144.5 118.5,144.5C 120.833,144.5 123.167,144.5 125.5,144.5C 128.5,144.5 131.5,144.5 134.5,144.5C 142.167,144.5 149.833,144.5 157.5,144.5C 157.817,148.702 157.483,152.702 156.5,156.5C 156.5,152.833 156.5,149.167 156.5,145.5C 136.993,145.83 117.659,145.497 98.5,144.5 Z"/></g>
</svg>
